<svg width="143" height="40" fill="none" xmlns="http://www.w3.org/2000/svg"><g clip-path="url(#a)"><path fill-rule="evenodd" clip-rule="evenodd" d="M15.385 6.935c-5.354 0-7.312 1.963-7.312 7.329V25.73c0 5.366 1.958 7.329 7.312 7.329H26.82c5.354 0 7.317-1.963 7.317-7.328V14.263c0-5.366-1.959-7.329-7.313-7.329H15.385Zm4.056 15.152h1.046l-.524-1.224-.522 1.224Zm-.258.616-.31.712h-.707l1.503-3.418h.611l1.497 3.418h-.726l-.306-.712h-1.562Zm11.373.71h.684v-3.416h-.683v3.416Zm-2.718-1.468h1.259v-.622h-1.26v-.7h1.829V20h-2.511v3.415h2.576v-.623h-1.893v-.847Zm-2.715.404-.774-2.352h-.565l-.774 2.352-.754-2.35h-.737l1.19 3.418h.572l.776-2.245.776 2.245h.578l1.186-3.418h-.718l-.756 2.35Zm-8-.394c0 .556-.275.853-.775.853-.503 0-.78-.306-.78-.877V20h-.692v1.955c0 .962.533 1.513 1.462 1.513.939 0 1.477-.562 1.477-1.542v-1.929h-.692v1.958Zm-3.9-1.958h.693v3.42h-.692v-1.389H11.66v1.39h-.693v-3.42h.693v1.379h1.563v-1.38Zm3.537-8.708c0 2.401 1.949 4.354 4.344 4.354a4.354 4.354 0 0 0 4.344-4.354h-.614a3.739 3.739 0 0 1-3.73 3.739 3.739 3.739 0 0 1-3.73-3.739h-.614Z" fill="#fff"/></g><path d="M89.84 18.65v9.996c0 1.458.673 2.192 2.018 2.2.25-.001.5-.024.747-.067a3.33 3.33 0 0 0 .67-.176l-.228-1.388c-.168.051-.342.08-.517.088a.712.712 0 0 1-.584-.225 1.225 1.225 0 0 1-.183-.777v-9.806l-1.922.155ZM70.699 28.154c.428.84 1.099 1.532 1.925 1.986a5.99 5.99 0 0 0 2.955.7c.715-.002 1.427-.083 2.124-.244a10.013 10.013 0 0 0 2.038-.697v-4.788h-4.498v1.505h2.62v2.31a5.68 5.68 0 0 1-1.057.274 6.87 6.87 0 0 1-1.126.096 3.61 3.61 0 0 1-2.067-.549 3.192 3.192 0 0 1-1.199-1.491 5.766 5.766 0 0 1-.377-2.155 5.225 5.225 0 0 1 .49-2.367 3.44 3.44 0 0 1 1.383-1.486 4.112 4.112 0 0 1 2.067-.518 6.848 6.848 0 0 1 2.943.735l.5-1.489a7.916 7.916 0 0 0-1.653-.59 7.819 7.819 0 0 0-1.865-.218 6.585 6.585 0 0 0-2.992.67 5 5 0 0 0-2.108 2.008 6.408 6.408 0 0 0-.775 3.25 6.533 6.533 0 0 0 .672 3.058Z" fill="#fff"/><path fill-rule="evenodd" clip-rule="evenodd" d="M44.04 27.637h4.544l1.14 3.04h2.09L47.269 19.32h-1.886L40.94 30.677h1.998l1.103-3.04Zm3.963-1.554h-3.385l1.204-3.268c.171-.502.331-.991.478-1.473.16.544.326 1.04.491 1.489l1.212 3.252ZM52.557 22.216c.041.755.062 1.445.062 2.072l-.016 9.92 1.933-.165v-3.504a5.13 5.13 0 0 0 1.697.29 4.023 4.023 0 0 0 2.096-.541 3.623 3.623 0 0 0 1.41-1.59c.36-.795.537-1.66.517-2.533a5.408 5.408 0 0 0-.442-2.33 2.917 2.917 0 0 0-2.726-1.777 3.417 3.417 0 0 0-2.583 1.233 9.057 9.057 0 0 0-.14-1.075h-1.808Zm5.733 4.058c0 1.036-.2 1.813-.592 2.33a2.004 2.004 0 0 1-1.7.77 3.647 3.647 0 0 1-.76-.083 2.92 2.92 0 0 1-.671-.223v-4.532c.265-.281.57-.521.907-.712a2.08 2.08 0 0 1 1.033-.259 1.547 1.547 0 0 1 1.292.637c.327.437.49 1.128.49 2.072ZM61.431 24.288c0-.627-.02-1.317-.062-2.072h1.809c.07.355.117.714.142 1.075.752-.822 1.613-1.233 2.583-1.233a2.907 2.907 0 0 1 2.726 1.777 5.41 5.41 0 0 1 .442 2.33 5.823 5.823 0 0 1-.504 2.533 3.624 3.624 0 0 1-1.413 1.59 4.016 4.016 0 0 1-2.096.541 5.13 5.13 0 0 1-1.697-.29v3.504l-1.932.165.002-9.92Zm5.087 4.317c.393-.53.59-1.307.59-2.331 0-.944-.164-1.635-.49-2.072a1.552 1.552 0 0 0-1.29-.637 2.09 2.09 0 0 0-1.034.26c-.336.19-.642.43-.907.711v4.532c.214.1.44.175.672.223.25.054.504.082.76.083a2.006 2.006 0 0 0 1.7-.77ZM86.605 30.676a7.468 7.468 0 0 1-.134-1.121 3.725 3.725 0 0 1-1.16.906c-.5.254-1.054.382-1.615.373a3.034 3.034 0 0 1-1.328-.287 2.18 2.18 0 0 1-.948-.863 2.64 2.64 0 0 1-.354-1.406 2.414 2.414 0 0 1 .886-1.963c.59-.49 1.572-.734 2.948-.733.513 0 1.025.037 1.532.11v-.166c0-.746-.158-1.273-.475-1.58a1.904 1.904 0 0 0-1.37-.459 5.397 5.397 0 0 0-1.322.182 6.93 6.93 0 0 0-1.246.43l-.305-1.41a7.43 7.43 0 0 1 1.36-.432 7.96 7.96 0 0 1 1.785-.196 4.641 4.641 0 0 1 1.86.334c.52.23.943.635 1.196 1.144.317.682.465 1.431.432 2.183v3.367c0 .345.02.875.062 1.59l-1.804-.003Zm-1.157-1.554c.372-.173.707-.419.984-.722v-1.554c-.429-.05-.86-.08-1.292-.085-.797 0-1.35.13-1.656.388a1.295 1.295 0 0 0-.457 1.036 1.189 1.189 0 0 0 .333.927c.252.213.576.321.904.303a2.705 2.705 0 0 0 1.184-.293Z" fill="#fff"/><path d="M94.649 28.646V18.65l1.924-.155V28.3c-.027.273.038.546.184.777a.714.714 0 0 0 .584.225c.175-.007.349-.037.517-.088l.224 1.388a3.29 3.29 0 0 1-.666.176 4.569 4.569 0 0 1-.75.068c-1.343-.009-2.016-.743-2.017-2.201Z" fill="#fff"/><path fill-rule="evenodd" clip-rule="evenodd" d="M100.466 26.694h5.521v-.521a5.324 5.324 0 0 0-.387-2.072 3.338 3.338 0 0 0-1.189-1.494 3.403 3.403 0 0 0-1.997-.562 3.847 3.847 0 0 0-2.031.534c-.6.371-1.076.912-1.372 1.553a5.462 5.462 0 0 0-.493 2.414 5.228 5.228 0 0 0 .465 2.305 3.257 3.257 0 0 0 1.39 1.465c.7.363 1.481.541 2.268.518a7.194 7.194 0 0 0 3.183-.689l-.423-1.325a7.316 7.316 0 0 1-1.191.388 5.423 5.423 0 0 1-1.217.145c-1.597 0-2.439-.886-2.527-2.66Zm3.121-2.748c.338.433.52.968.517 1.517l-3.592-.005a2.699 2.699 0 0 1 .639-1.512 1.625 1.625 0 0 1 1.224-.518 1.55 1.55 0 0 1 1.212.518Z" fill="#fff"/><path d="M107.449 24.342c0-.463-.023-1.173-.065-2.123h1.809a25.34 25.34 0 0 1 .147 1.639c.195-.33.416-.644.662-.938.213-.25.47-.46.759-.618.304-.165.645-.248.99-.241.261-.007.522.026.775.096l-.243 1.678a2.217 2.217 0 0 0-1.809.259 4.9 4.9 0 0 0-1.103 1.144v5.438h-1.922v-6.334ZM112.907 33.97a5.252 5.252 0 0 0 1.601.243 3.574 3.574 0 0 0 1.672-.362 3.315 3.315 0 0 0 1.199-1.103c.396-.612.714-1.27.948-1.96l3.1-8.57h-1.945l-1.576 4.807c-.199.611-.37 1.222-.517 1.833a15.317 15.317 0 0 0-.491-1.872l-1.581-4.767h-2.067l3.113 8.53-.126.313c-.42 1.103-1.061 1.655-1.922 1.655a3.364 3.364 0 0 1-.564-.052 4.946 4.946 0 0 1-.493-.106l-.351 1.411ZM90.466 15.027V9.2h2.285c.369 0 .678.076.928.227.25.15.439.346.565.586.127.238.19.488.19.753 0 .32-.08.596-.238.825-.156.23-.367.386-.634.47l-.008-.199c.372.092.657.271.856.538.2.264.299.573.299.927 0 .342-.069.64-.206.894a1.436 1.436 0 0 1-.594.594c-.258.14-.571.21-.94.21h-2.502Zm.856-.805h1.518c.19 0 .362-.037.512-.11a.846.846 0 0 0 .36-.311.882.882 0 0 0 .133-.49.957.957 0 0 0-.117-.473.81.81 0 0 0-.331-.336.98.98 0 0 0-.505-.125h-1.57v1.845Zm0-2.642h1.417a.925.925 0 0 0 .42-.093.736.736 0 0 0 .298-.275.812.812 0 0 0 .113-.437.743.743 0 0 0-.226-.559c-.15-.145-.352-.218-.605-.218h-1.417v1.582ZM83.037 15.027V9.2h3.714v.797h-2.87v1.634h2.385v.797h-2.385v1.8h2.87v.798h-3.714ZM79.05 15.027V9.998h-1.934v-.797h4.71v.797h-1.933v5.029h-.844ZM71.336 15.027V9.2h.855v4.329L75.053 9.2h.856v5.826h-.856v-4.333l-2.862 4.333h-.855Zm2.3-6.328c-.215 0-.41-.052-.585-.157a1.207 1.207 0 0 1-.42-.421 1.12 1.12 0 0 1-.157-.587h.67c0 .135.048.251.145.348a.473.473 0 0 0 .347.146.465.465 0 0 0 .348-.146.475.475 0 0 0 .145-.348h.67c0 .216-.053.411-.158.587a1.196 1.196 0 0 1-.423.42 1.106 1.106 0 0 1-.582.158ZM67.22 15.148c-.58 0-1.076-.127-1.484-.38a2.504 2.504 0 0 1-.941-1.068c-.215-.456-.323-.985-.323-1.586 0-.602.108-1.13.323-1.586.218-.456.531-.81.94-1.064.41-.256.905-.384 1.486-.384.578 0 1.072.128 1.481.384.412.253.725.608.94 1.064.216.456.324.984.324 1.586 0 .601-.108 1.13-.323 1.586a2.469 2.469 0 0 1-.94 1.068c-.41.253-.904.38-1.482.38Zm0-.805c.412.005.754-.085 1.026-.271.275-.189.48-.45.618-.785.137-.337.206-.728.206-1.173 0-.445-.07-.834-.206-1.165a1.691 1.691 0 0 0-.618-.781c-.272-.186-.614-.28-1.025-.283-.412-.006-.755.085-1.03.27a1.698 1.698 0 0 0-.613.786 3.146 3.146 0 0 0-.21 1.173c-.002.445.065.835.202 1.17.137.33.343.59.618.776.277.186.621.28 1.033.283ZM59.169 15.027V9.2h2.349c.056 0 .126.003.21.008.083.003.163.01.238.024.323.052.592.162.807.332.218.17.381.384.489.643.107.26.161.545.161.858 0 .316-.054.603-.161.862a1.56 1.56 0 0 1-.489.643c-.215.17-.484.28-.807.332a3.292 3.292 0 0 1-.448.032h-1.506v2.092h-.843Zm.843-2.893h1.474c.053 0 .113-.003.177-.008.068-.005.13-.015.19-.028a.828.828 0 0 0 .416-.223.98.98 0 0 0 .226-.38 1.36 1.36 0 0 0 0-.854.946.946 0 0 0-.226-.376.813.813 0 0 0-.416-.227 1.04 1.04 0 0 0-.19-.032 2.146 2.146 0 0 0-.177-.008h-1.474v2.136ZM53.519 15.027V9.2h.843v2.719L56.796 9.2h1.05l-2.571 2.844 2.76 2.982h-1.081l-2.592-2.784v2.784h-.843ZM49.531 15.027V9.998h-1.933v-.797h4.71v.797h-1.933v5.029h-.844ZM44.125 15.148c-.581 0-1.077-.127-1.486-.38a2.504 2.504 0 0 1-.94-1.068c-.215-.456-.323-.985-.323-1.586 0-.602.108-1.13.323-1.586.218-.456.531-.81.94-1.064.41-.256.904-.384 1.486-.384.578 0 1.072.128 1.481.384.412.253.725.608.94 1.064.216.456.323.984.323 1.586 0 .601-.107 1.13-.322 1.586a2.468 2.468 0 0 1-.94 1.068c-.41.253-.904.38-1.482.38Zm0-.805c.411.005.753-.085 1.025-.271.274-.189.48-.45.617-.785.138-.337.206-.728.206-1.173 0-.445-.068-.834-.206-1.165a1.691 1.691 0 0 0-.617-.781c-.272-.186-.614-.28-1.025-.283-.412-.006-.755.085-1.03.27a1.698 1.698 0 0 0-.613.786 3.146 3.146 0 0 0-.21 1.173c-.003.445.065.835.202 1.17.137.33.343.59.618.776.277.186.621.28 1.033.283Z" fill="#fff"/><defs><clipPath id="a"><path fill="#fff" transform="translate(8.073 6.935)" d="M0 0h26.063v26.123H0z"/></clipPath></defs></svg>
