<svg width="96" height="32" viewBox="0 0 96 32" fill="none" xmlns="http://www.w3.org/2000/svg">
  <path d="M19.9974 15.9115C20.0063 15.2171 20.1908 14.5363 20.5335 13.9324C20.8763 13.3284 21.3663 12.821 21.9578 12.4573C21.582 11.9206 21.0862 11.4789 20.5099 11.1673C19.9335 10.8557 19.2924 10.6828 18.6375 10.6623C17.2405 10.5157 15.8862 11.4982 15.1743 11.4982C14.4487 11.4982 13.3526 10.6769 12.1723 10.7011C11.4089 10.7258 10.6649 10.9478 10.0128 11.3455C9.36065 11.7432 8.82267 12.3031 8.45125 12.9705C6.84236 15.7561 8.04245 19.85 9.58366 22.1017C10.3548 23.2043 11.256 24.4359 12.4352 24.3922C13.5891 24.3444 14.02 23.6564 15.4129 23.6564C16.7929 23.6564 17.1972 24.3922 18.4003 24.3645C19.6386 24.3444 20.4187 23.257 21.1627 22.144C21.7168 21.3583 22.1431 20.49 22.4259 19.5712C21.7066 19.267 21.0927 18.7577 20.6608 18.1069C20.2289 17.4561 19.9982 16.6925 19.9974 15.9115Z" fill="white"/>
  <path d="M17.7249 9.18145C18.4 8.37099 18.7326 7.32928 18.6521 6.27754C17.6207 6.38587 16.6679 6.87883 15.9836 7.6582C15.6491 8.03894 15.3929 8.48188 15.2296 8.96171C15.0664 9.44153 14.9993 9.94883 15.0322 10.4546C15.5481 10.4599 16.0585 10.3481 16.5249 10.1276C16.9913 9.90703 17.4016 9.58354 17.7249 9.18145Z" fill="white"/>
  <path d="M33.8414 21.7117H30.0547L29.1453 24.3969H27.5414L31.1281 14.4625H32.7945L36.3813 24.3969H34.75L33.8414 21.7117ZM30.4469 20.4727H33.4485L31.9688 16.1149H31.9274L30.4469 20.4727Z" fill="white"/>
  <path d="M44.1274 20.7758C44.1274 23.0266 42.9227 24.4727 41.1047 24.4727C40.6442 24.4968 40.1862 24.3907 39.7831 24.1666C39.3801 23.9425 39.0483 23.6094 38.8258 23.2055H38.7914V26.793H37.3047V17.1539H38.7437V18.3586H38.7711C39.0039 17.9566 39.3412 17.6253 39.7473 17.3998C40.1534 17.1743 40.6131 17.0632 41.0773 17.0781C42.9156 17.0781 44.1274 18.5313 44.1274 20.7758ZM42.5992 20.7758C42.5992 19.3094 41.8414 18.3453 40.6852 18.3453C39.5492 18.3453 38.7852 19.3297 38.7852 20.7758C38.7852 22.2352 39.5492 23.2125 40.6852 23.2125C41.8414 23.2125 42.5992 22.2555 42.5992 20.7758H42.5992Z" fill="white"/>
  <path d="M52.0996 20.7758C52.0996 23.0266 50.8945 24.4727 49.0766 24.4727C48.616 24.4968 48.1581 24.3907 47.755 24.1666C47.352 23.9425 47.0202 23.6094 46.7977 23.2055H46.7633V26.793H45.2766V17.1539H46.7156V18.3586H46.743C46.9757 17.9566 47.3131 17.6253 47.7192 17.3998C48.1253 17.1743 48.5849 17.0632 49.0492 17.0781C50.8875 17.0781 52.0996 18.5313 52.0996 20.7758ZM50.5711 20.7758C50.5711 19.3094 49.8133 18.3453 48.657 18.3453C47.5211 18.3453 46.757 19.3297 46.757 20.7758C46.757 22.2352 47.5211 23.2125 48.657 23.2125C49.8133 23.2125 50.5711 22.2555 50.5711 20.7758Z" fill="white"/>
  <path d="M57.3676 21.6289C57.4777 22.6141 58.4348 23.2609 59.7426 23.2609C60.9957 23.2609 61.8973 22.614 61.8973 21.7258C61.8973 20.9547 61.3535 20.493 60.066 20.1765L58.7785 19.8664C56.9543 19.4258 56.1074 18.5726 56.1074 17.1883C56.1074 15.4742 57.6012 14.2968 59.7215 14.2968C61.8215 14.2968 63.2606 15.4742 63.309 17.1883H61.8082C61.7184 16.1968 60.8988 15.5984 59.7012 15.5984C58.5035 15.5984 57.684 16.2039 57.684 17.0851C57.684 17.7875 58.2074 18.2008 59.4879 18.5171L60.5824 18.7859C62.6207 19.2679 63.4668 20.0867 63.4668 21.5398C63.4668 23.3984 61.9871 24.5624 59.6324 24.5624C57.4293 24.5624 55.9418 23.4257 55.8457 21.6288L57.3676 21.6289Z" fill="white"/>
  <path d="M66.677 15.4398V17.1539H68.0543V18.3313H66.677V22.3242C66.677 22.9445 66.9528 23.2336 67.5582 23.2336C67.7217 23.2308 67.885 23.2193 68.0473 23.1992V24.3695C67.7751 24.4204 67.4984 24.4434 67.2215 24.4383C65.7551 24.4383 65.1832 23.8875 65.1832 22.4828V18.3313H64.1301V17.1539H65.1832V15.4398H66.677Z" fill="white"/>
  <path d="M68.8512 20.7758C68.8512 18.4969 70.1934 17.0649 72.2864 17.0649C74.3864 17.0649 75.7223 18.4969 75.7223 20.7758C75.7223 23.061 74.3934 24.4867 72.2864 24.4867C70.1801 24.4867 68.8512 23.061 68.8512 20.7758ZM74.2074 20.7758C74.2074 19.2125 73.491 18.2899 72.2864 18.2899C71.0817 18.2899 70.3653 19.2196 70.3653 20.7758C70.3653 22.3453 71.0817 23.261 72.2864 23.261C73.491 23.261 74.2074 22.3453 74.2074 20.7758H74.2074Z" fill="white"/>
  <path d="M76.9481 17.1539H78.366V18.3867H78.4004C78.4964 18.0017 78.7219 17.6614 79.0392 17.4231C79.3565 17.1848 79.7461 17.063 80.1426 17.0781C80.3139 17.0775 80.4848 17.0961 80.652 17.1336V18.5242C80.4357 18.4581 80.2101 18.4278 79.984 18.4344C79.768 18.4256 79.5527 18.4637 79.3528 18.546C79.1529 18.6283 78.9732 18.7529 78.8261 18.9112C78.6789 19.0695 78.5677 19.2578 78.5002 19.4631C78.4326 19.6685 78.4103 19.886 78.4348 20.1008V24.3969H76.9481L76.9481 17.1539Z" fill="white"/>
  <path d="M87.5067 22.2695C87.3067 23.5844 86.0262 24.4867 84.3879 24.4867C82.2809 24.4867 80.9731 23.075 80.9731 20.8102C80.9731 18.5383 82.2879 17.0648 84.3254 17.0648C86.3293 17.0648 87.5895 18.4414 87.5895 20.6375V21.1469H82.4738V21.2367C82.4502 21.5033 82.4836 21.7718 82.5718 22.0245C82.6599 22.2772 82.8008 22.5082 82.9851 22.7022C83.1694 22.8963 83.3928 23.0489 83.6406 23.1499C83.8884 23.251 84.1549 23.2981 84.4223 23.2883C84.7736 23.3212 85.1262 23.2398 85.4276 23.0563C85.7289 22.8727 85.963 22.5968 86.0949 22.2695L87.5067 22.2695ZM82.4809 20.1078H86.102C86.1153 19.8681 86.079 19.6283 85.9952 19.4033C85.9115 19.1784 85.7822 18.9731 85.6153 18.8005C85.4485 18.6279 85.2478 18.4916 85.0258 18.4003C84.8039 18.3089 84.5654 18.2644 84.3254 18.2695C84.0833 18.2681 83.8433 18.3146 83.6193 18.4064C83.3952 18.4982 83.1916 18.6334 83.0201 18.8044C82.8486 18.9753 82.7127 19.1784 82.6201 19.4022C82.5276 19.6259 82.4802 19.8657 82.4809 20.1078V20.1078Z" fill="white"/>
  <path d="M29.3906 9.00274H30.0289C30.1388 9.01642 30.2503 9.0072 30.3565 8.97564C30.4626 8.94409 30.561 8.89089 30.6456 8.8194C30.7301 8.74791 30.799 8.65968 30.8477 8.56027C30.8965 8.46086 30.9241 8.35243 30.9289 8.2418C30.9289 7.80157 30.5977 7.5172 30.036 7.5172C29.9234 7.50147 29.8088 7.50845 29.699 7.53774C29.5891 7.56702 29.4863 7.61802 29.3965 7.68771C29.3067 7.7574 29.2318 7.84438 29.1762 7.94351C29.1206 8.04263 29.0854 8.1519 29.0727 8.26485H28.3719C28.3839 8.05981 28.4381 7.85945 28.5309 7.67624C28.6238 7.49303 28.7533 7.3309 28.9116 7.19994C29.0698 7.06897 29.2533 6.97198 29.4506 6.91501C29.648 6.85803 29.8549 6.84229 30.0586 6.86876C30.9984 6.86876 31.6602 7.39492 31.6602 8.15235C31.6624 8.40609 31.5775 8.65291 31.4197 8.85161C31.2619 9.05031 31.0406 9.18887 30.793 9.24415V9.3004C31.0866 9.31342 31.3631 9.44215 31.562 9.65845C31.761 9.87476 31.8662 10.161 31.8547 10.4547C31.833 10.6658 31.7693 10.8705 31.6675 11.0567C31.5656 11.2428 31.4277 11.4068 31.2616 11.539C31.0956 11.6712 30.9048 11.7689 30.7005 11.8264C30.4962 11.8839 30.2825 11.9 30.0719 11.8738C29.8608 11.9026 29.6462 11.8886 29.4406 11.8326C29.2351 11.7767 29.043 11.6799 28.8757 11.5481C28.7083 11.4163 28.5693 11.2521 28.4668 11.0654C28.3642 10.8787 28.3004 10.6733 28.2789 10.4613H28.9906C29.0336 10.918 29.4532 11.2125 30.0719 11.2125C30.6906 11.2125 31.0946 10.8817 31.0946 10.4153C31.0946 9.94223 30.7141 9.65082 30.0492 9.65082H29.3906V9.00274Z" fill="white"/>
  <path d="M32.6633 10.7395C32.6633 10.091 33.1469 9.71719 34.0031 9.66406L34.9789 9.60781V9.29688C34.9789 8.91641 34.7281 8.70157 34.2414 8.70157C33.8446 8.70157 33.5703 8.84727 33.4906 9.10196H32.8024C32.875 8.48321 33.4578 8.08633 34.275 8.08633C35.1781 8.08633 35.6875 8.53593 35.6875 9.29688V11.7582H35.0024V11.252H34.9461C34.8319 11.4336 34.6716 11.5816 34.4815 11.681C34.2914 11.7803 34.0784 11.8275 33.8641 11.8176C33.7129 11.8333 33.56 11.8172 33.4154 11.7702C33.2708 11.7232 33.1376 11.6465 33.0245 11.5449C32.9114 11.4433 32.8208 11.3192 32.7586 11.1805C32.6963 11.0417 32.6639 10.8915 32.6633 10.7395ZM34.9789 10.4316V10.1305L34.0992 10.1867C33.6031 10.2199 33.3781 10.3887 33.3781 10.7062C33.3781 11.0305 33.6594 11.2191 34.0461 11.2191C34.1594 11.2306 34.2739 11.2192 34.3827 11.1855C34.4915 11.1518 34.5924 11.0966 34.6795 11.0231C34.7665 10.9497 34.8379 10.8594 34.8893 10.7578C34.9407 10.6562 34.9712 10.5453 34.9789 10.4316Z" fill="white"/>
  <path d="M37.5742 8.75429V11.7582H36.8633V8.15585H39.2352V8.75425L37.5742 8.75429Z" fill="white"/>
  <path d="M43.5438 9.95548C43.5438 11.1 42.9649 11.8176 42.0555 11.8176C41.8323 11.8328 41.6093 11.784 41.4129 11.6768C41.2165 11.5696 41.0548 11.4085 40.9469 11.2125H40.8906V12.9559H40.1797V8.15587H40.8641V8.75121H40.9172C41.0271 8.54836 41.1909 8.37983 41.3905 8.26423C41.5901 8.14863 41.8178 8.09045 42.0485 8.09613C42.9649 8.0961 43.5438 8.81055 43.5438 9.95548ZM42.8125 9.95548C42.8125 9.19454 42.4524 8.73478 41.85 8.73478C41.2516 8.73478 40.8774 9.2043 40.8774 9.95861C40.8774 10.7094 41.2516 11.1793 41.8469 11.1793C42.4524 11.1793 42.8125 10.7195 42.8125 9.95548Z" fill="white"/>
  <path d="M44.4906 13.0484V12.4363C44.5676 12.4461 44.6451 12.4505 44.7226 12.4496C44.8741 12.4608 45.0244 12.4157 45.1446 12.3229C45.2649 12.2301 45.3466 12.0962 45.3742 11.9469L45.4273 11.7715L44.1234 8.15585H44.8976L45.8008 11.0172H45.857L46.757 8.15585H47.511L46.168 11.907C45.8602 12.7836 45.5196 13.0648 44.7852 13.0648C44.7258 13.0648 44.557 13.0582 44.4906 13.0484Z" fill="white"/>
  <path d="M48.0649 10.7359H48.7727C48.8422 11.0535 49.1399 11.2191 49.5563 11.2191C50.0297 11.2191 50.3203 11.0105 50.3203 10.6863C50.3203 10.3391 50.0594 10.1734 49.5563 10.1734H49.0172V9.6211H49.5469C49.9766 9.6211 50.1953 9.45587 50.1953 9.1547C50.1953 8.89025 49.9836 8.6883 49.5469 8.6883C49.1492 8.6883 48.8586 8.85705 48.8125 9.14143H48.1274C48.1786 8.81466 48.356 8.52105 48.6215 8.32374C48.8869 8.12643 49.2192 8.04119 49.5469 8.08635C50.4031 8.08635 50.893 8.47346 50.893 9.08205C50.897 9.25153 50.8427 9.41724 50.7392 9.55148C50.6356 9.68572 50.4892 9.78036 50.3242 9.81956V9.87581C50.5206 9.90113 50.7008 9.99766 50.8307 10.1471C50.9606 10.2965 51.0311 10.4884 51.0289 10.6864C51.0289 11.3712 50.4461 11.8242 49.5563 11.8242C48.7695 11.8242 48.1305 11.4637 48.0649 10.7359Z" fill="white"/>
  <path d="M52.0528 11.7582V8.15585H52.7574V10.6336H52.8137L54.4738 8.15586H55.1785V11.7582H54.4738V9.2672H54.4207L52.7574 11.7582L52.0528 11.7582Z" fill="white"/>
  <path d="M59.0606 8.7543H57.9262V11.7582H57.2144V8.7543H56.08V8.1559H59.0606V8.7543Z" fill="white"/>
  <path d="M62.8902 10.7855C62.7934 11.1148 62.5839 11.3995 62.2985 11.59C62.013 11.7805 61.6697 11.8646 61.3285 11.8277C61.0912 11.834 60.8553 11.7885 60.6373 11.6945C60.4193 11.6005 60.2244 11.4602 60.0661 11.2832C59.9078 11.1063 59.7898 10.8971 59.7205 10.67C59.6511 10.443 59.632 10.2035 59.6645 9.96835C59.6329 9.73244 59.6523 9.4925 59.7215 9.26476C59.7907 9.03702 59.908 8.82681 60.0655 8.64835C60.223 8.46989 60.417 8.32735 60.6344 8.23039C60.8517 8.13342 61.0874 8.08429 61.3254 8.08632C62.3277 8.08632 62.9332 8.77112 62.9332 9.90232V10.1504H60.3895V10.1902C60.3782 10.3225 60.3947 10.4556 60.438 10.581C60.4812 10.7065 60.5502 10.8215 60.6406 10.9187C60.731 11.0159 60.8406 11.0931 60.9626 11.1454C61.0846 11.1977 61.2162 11.2238 61.3488 11.2222C61.5188 11.2426 61.6909 11.2119 61.8434 11.1341C61.9959 11.0564 62.1218 10.935 62.2051 10.7855L62.8902 10.7855ZM60.3894 9.62461H62.2082C62.2172 9.50377 62.2008 9.38238 62.1601 9.26825C62.1194 9.15412 62.0552 9.04976 61.9718 8.96188C61.8884 8.874 61.7875 8.80454 61.6756 8.75796C61.5638 8.71138 61.4434 8.68871 61.3223 8.69141C61.1993 8.68973 61.0772 8.71273 60.9632 8.75904C60.8493 8.80535 60.7458 8.87403 60.6588 8.96103C60.5718 9.04803 60.5032 9.15157 60.457 9.26555C60.4107 9.37952 60.3877 9.50161 60.3895 9.62461H60.3894Z" fill="white"/>
  <path d="M65.9043 8.15585H67.5285C68.2332 8.15585 68.6465 8.51288 68.6465 9.07185C68.6476 9.24922 68.5877 9.42158 68.477 9.5601C68.3662 9.69861 68.2112 9.79488 68.0379 9.83279V9.88904C68.2483 9.90233 68.4455 9.99592 68.5889 10.1505C68.7322 10.305 68.8108 10.5087 68.8082 10.7195C68.8082 11.348 68.3356 11.7582 67.5449 11.7582H65.9043V8.15585ZM66.609 8.70156V9.63436H67.3137C67.7434 9.63436 67.9488 9.46913 67.9488 9.16444C67.9488 8.88358 67.7699 8.70155 67.3926 8.70155L66.609 8.70156ZM66.609 10.157V11.2125H67.452C67.8723 11.2125 68.0973 11.027 68.0973 10.6863C68.0973 10.3258 67.8426 10.157 67.3629 10.157L66.609 10.157Z" fill="white"/>
</svg>
