<svg width="119" height="33" viewBox="0 0 119 33" fill="none" xmlns="http://www.w3.org/2000/svg">
  <path d="M60.4968 17.6023C58.4307 17.6023 56.7448 19.0334 56.7448 21.0061C56.7448 22.9638 58.4289 24.4083 60.4968 24.4083C62.5628 24.4083 64.2487 22.9638 64.2487 21.0061C64.2487 19.0334 62.5647 17.6023 60.4968 17.6023ZM60.4968 23.0675C59.3637 23.0675 58.3867 22.2165 58.3867 21.0061C58.3867 19.7807 59.3637 18.9431 60.4968 18.9431C61.6299 18.9431 62.6051 19.7807 62.6051 21.0061C62.6069 22.2165 61.6299 23.0675 60.4968 23.0675ZM52.3116 17.6023C50.2455 17.6023 48.5596 19.0334 48.5596 21.0061C48.5596 22.9638 50.2437 24.4083 52.3116 24.4083C54.3776 24.4083 56.0635 22.9638 56.0635 21.0061C56.0653 19.0334 54.3794 17.6023 52.3116 17.6023ZM52.3116 23.0675C51.1803 23.0675 50.2033 22.2165 50.2033 21.0061C50.2033 19.7807 51.1803 18.9431 52.3116 18.9431C53.4447 18.9431 54.4217 19.7807 54.4217 21.0061C54.4217 22.2165 53.4447 23.0675 52.3116 23.0675ZM42.5763 18.6472V20.09H46.3705C46.2566 20.9025 45.961 21.4943 45.5074 21.9072C44.9546 22.4105 44.0914 22.9638 42.5763 22.9638C40.2403 22.9638 38.413 21.2502 38.413 19.1237C38.413 16.9971 40.2385 15.2835 42.5763 15.2835C43.8362 15.2835 44.7562 15.7333 45.4357 16.3134L46.5542 15.2953C45.6047 14.4711 44.3449 13.8391 42.5763 13.8391C39.3772 13.8391 36.6867 16.2114 36.6867 19.1237C36.6867 22.0376 39.3772 24.4083 42.5763 24.4083C44.3026 24.4083 45.6047 23.8917 46.6258 22.9254C47.6726 21.9724 47.9995 20.6317 47.9995 19.5483C47.9995 19.2123 47.9719 18.9047 47.915 18.6472H42.5763ZM82.3932 19.7673C82.081 19.0067 81.1334 17.6023 79.1941 17.6023C77.2694 17.6023 75.6699 18.9816 75.6699 21.0061C75.6699 22.9137 77.2547 24.4083 79.3777 24.4083C81.0912 24.4083 82.081 23.4553 82.4924 22.9003L81.2179 22.1262C80.7918 22.693 80.2133 23.0675 79.3777 23.0675C78.5421 23.0675 77.9471 22.7197 77.5651 22.0376L82.5622 20.1552L82.3932 19.7673ZM77.297 20.9025C77.2547 19.5868 78.4154 18.9181 79.251 18.9181C79.903 18.9181 80.4557 19.214 80.6394 19.6403L77.297 20.9025ZM73.2328 24.201H74.8747V14.2002H73.2328V24.201ZM70.5424 18.363H70.4854C70.1182 17.9635 69.4093 17.6023 68.5186 17.6023C66.649 17.6023 64.9374 19.0969 64.9374 21.0178C64.9374 22.9254 66.6509 24.4066 68.5186 24.4066C69.4111 24.4066 70.1182 24.0455 70.4854 23.6325H70.5424V24.1224C70.5424 25.4247 69.7784 26.1202 68.5461 26.1202C67.5416 26.1202 66.9172 25.4632 66.6637 24.9098L65.2331 25.4515C65.6426 26.3542 66.7335 27.4626 68.5461 27.4626C70.4708 27.4626 72.0997 26.4311 72.0997 23.9184V17.8096H70.5424V18.363ZM68.66 23.0675C67.5269 23.0675 66.5792 22.2048 66.5792 21.0195C66.5792 19.8208 67.5269 18.9448 68.66 18.9448C69.7784 18.9448 70.6562 19.8208 70.6562 21.0195C70.6562 22.2031 69.7784 23.0675 68.66 23.0675ZM90.0863 14.2002H86.158V24.201H87.7962V20.4126H90.0863C91.9044 20.4126 93.6895 19.214 93.6895 17.3064C93.6895 15.3989 91.9044 14.2002 90.0863 14.2002ZM90.1285 19.02H87.7962V15.5912H90.1285C91.3553 15.5912 92.0513 16.5157 92.0513 17.3048C92.0513 18.0822 91.3553 19.02 90.1285 19.02ZM100.262 17.584C99.0759 17.584 97.8455 18.0604 97.3368 19.1137L98.7931 19.667C99.1035 19.1137 99.6838 18.9331 100.292 18.9331C101.14 18.9331 102.001 19.3962 102.016 20.2187V20.3224C101.719 20.1686 101.083 19.9362 100.306 19.9362C98.738 19.9362 97.1403 20.7203 97.1403 22.1881C97.1403 23.5272 98.4276 24.3882 99.8674 24.3882C100.971 24.3882 101.577 23.9385 101.959 23.4102H102.016V24.1826H103.599V20.3474C103.597 18.5753 102.143 17.584 100.262 17.584ZM100.066 23.0658C99.5277 23.0658 98.7784 22.8217 98.7784 22.2165C98.7784 21.4441 99.7113 21.1499 100.518 21.1499C101.237 21.1499 101.577 21.292 102.016 21.4843C101.888 22.4088 101.012 23.0658 100.066 23.0658ZM109.364 17.803L107.483 22.1396H107.426L105.476 17.803H103.709L106.635 23.8632L104.967 27.2336H106.677L111.186 17.803H109.364ZM94.5949 24.201H96.2349V14.2002H94.5949V24.201Z" fill="white"/>
  <path fill-rule="evenodd" clip-rule="evenodd" d="M22.9251 11.8965L12.9789 6.65767L12.9718 6.65383C12.6685 6.48826 12.315 6.39307 11.9355 6.39307C11.1128 6.39307 10.4023 6.84589 10.0942 7.49354L18.9322 15.5226L22.9251 11.8965ZM9.92987 8.71423V23.7107L18.1889 16.3251L9.92987 8.71423ZM10.0958 24.911L18.9389 17.0015L22.9333 20.525L12.9773 25.7437L12.9468 25.7611C12.6493 25.918 12.3054 26.008 11.9355 26.008C11.1107 26.008 10.4022 25.5563 10.0958 24.911ZM19.6834 16.22L23.8872 20.025L28.0741 17.8303L28.0803 17.8272C28.7127 17.5161 29.1378 16.9133 29.1378 16.2214C29.1378 15.5312 28.7182 14.9332 28.0946 14.6228L28.0856 14.6183L28.0709 14.6103L23.8702 12.3986L19.6834 16.22Z" fill="white"/>
  <path d="M38.4683 10.4787C38.033 10.2514 37.6896 9.93873 37.4398 9.53917C37.1901 9.1396 37.0652 8.69992 37.0652 8.21677C37.0652 7.73362 37.1901 7.29393 37.4398 6.89437C37.6896 6.49481 38.033 6.18218 38.4683 5.95482C38.9035 5.72745 39.3865 5.61377 39.9173 5.61377C40.7382 5.61377 41.414 5.8846 41.9429 6.42794L41.3534 6.94954C41.1642 6.74558 40.9549 6.59178 40.7235 6.4898C40.4921 6.38782 40.2258 6.33599 39.9246 6.33599C39.5518 6.33599 39.2139 6.41289 38.9072 6.56837C38.6005 6.72385 38.3599 6.94453 38.1799 7.2304C38.0018 7.51628 37.9118 7.84396 37.9118 8.2151C37.9118 8.58624 38.0018 8.91391 38.1799 9.19979C38.3581 9.48567 38.6005 9.70635 38.9072 9.86015C39.212 10.0156 39.5518 10.0942 39.9246 10.0942C40.5472 10.0942 41.0687 9.86015 41.4911 9.39037L42.0953 9.91866C41.8309 10.2012 41.5113 10.4219 41.1404 10.5807C40.7675 10.7378 40.3598 10.8181 39.9173 10.8181C39.3865 10.8198 38.9035 10.7061 38.4683 10.4787Z" fill="white"/>
  <path d="M43.0356 5.72412H43.8768V8.13988H43.9227L46.1026 5.72412H47.1586V5.76592L44.8501 8.2569L47.2816 10.6643V10.7061H46.1797L43.9245 8.42241H43.8786V10.7061H43.0375V5.72412H43.0356Z" fill="white"/>
  <path d="M49.871 5.72412H50.826L52.8975 10.7078H51.9719L51.4669 9.42717H49.2337L48.7287 10.7078H47.8031L49.871 5.72412ZM51.1933 8.71832L50.5817 7.19029L50.376 6.62021H50.3301L50.1244 7.19029L49.5129 8.71832H51.1933Z" fill="white"/>
  <path d="M56.0636 8.48761C55.722 8.76179 55.3015 8.89888 54.802 8.89888C54.4714 8.89888 54.172 8.83702 53.9039 8.71498C53.6358 8.59294 53.4264 8.41405 53.274 8.18334C53.1216 7.95096 53.0444 7.67846 53.0444 7.36249V5.72746H53.8929V7.23042C53.8929 7.53134 53.9902 7.76539 54.1831 7.92923C54.3759 8.09474 54.6367 8.17666 54.9636 8.17666C55.408 8.17666 55.7735 8.01951 56.0655 7.70354V5.72412H56.8992V10.7078H56.0655V8.48761H56.0636Z" fill="white"/>
  <path d="M59.7018 5.72412H60.6568L62.7283 10.7078H61.8027L61.2977 9.42717H59.0645L58.5595 10.7078H57.6339L59.7018 5.72412ZM61.0259 8.71832L60.4144 7.19029L60.2087 6.62021H60.1628L59.9571 7.19029L59.3455 8.71832H61.0259Z" fill="white"/>
  <path d="M64.1516 6.44801H62.6145V5.72412H66.5207V6.44801H64.9909V10.7078H64.1498V6.44801H64.1516Z" fill="white"/>
  <path d="M67.3948 5.72412H68.2359V7.49958H69.3984C69.74 7.49958 70.0559 7.5631 70.346 7.69183C70.6362 7.81889 70.8676 8.00446 71.042 8.24854C71.2147 8.49263 71.3028 8.77683 71.3028 9.10116C71.3028 9.42549 71.2165 9.7097 71.042 9.95378C70.8694 10.1979 70.6362 10.3834 70.346 10.5138C70.0559 10.6442 69.74 10.7094 69.3984 10.7094H67.3948V5.72412ZM69.459 9.99056C69.6573 9.99056 69.8336 9.94877 69.9861 9.86518C70.1385 9.78159 70.256 9.67125 70.3387 9.53416C70.4195 9.39707 70.4617 9.25163 70.4617 9.09949C70.4617 8.94569 70.4213 8.80191 70.3387 8.66482C70.2579 8.52774 70.1403 8.4174 69.9861 8.33046C69.8336 8.2452 69.6573 8.20173 69.459 8.20173H68.2359V9.99056H69.459Z" fill="white"/>
  <path d="M74.0079 5.72412H74.8417V8.48093L74.7958 9.44221H74.8417L77.2953 5.72579H78.2502V10.7094H77.4165V7.88409L77.4624 6.9228H77.4165L74.9243 10.7078H74.0061V5.72412H74.0079Z" fill="white"/>
  <path d="M79.8976 10.4989C79.5542 10.2849 79.3173 9.97059 79.1906 9.55264L79.9619 9.27344C80.028 9.53257 80.1565 9.73821 80.3475 9.88532C80.5385 10.0341 80.7644 10.1077 81.0234 10.1077C81.3044 10.1077 81.5431 10.0274 81.7414 9.86693C81.9398 9.70644 82.039 9.50917 82.039 9.27177C82.039 9.11797 81.9912 8.97921 81.8939 8.85048C81.7965 8.72342 81.6643 8.62144 81.4954 8.54788C81.3264 8.47432 81.1427 8.43587 80.9444 8.43587H80.4926V7.76715H80.8985C81.174 7.76715 81.4035 7.6986 81.5872 7.56152C81.7708 7.42443 81.8626 7.24053 81.8626 7.00815C81.8626 6.80419 81.7782 6.63534 81.6074 6.49992C81.4366 6.36618 81.2236 6.29763 80.9683 6.29763C80.7387 6.29763 80.5459 6.36116 80.3879 6.48487C80.23 6.61026 80.1198 6.75905 80.0592 6.92957L79.3173 6.65038C79.4238 6.37621 79.6185 6.1338 79.9031 5.92315C80.1859 5.7125 80.544 5.60718 80.9775 5.60718C81.308 5.60718 81.6037 5.66569 81.8608 5.78439C82.1179 5.90309 82.3199 6.06525 82.465 6.27088C82.6101 6.47819 82.6836 6.71057 82.6836 6.9697C82.6836 7.45285 82.4522 7.80894 81.9875 8.04132V8.08312C82.2483 8.19012 82.4595 8.34559 82.623 8.54955C82.7864 8.75351 82.8672 9.00261 82.8672 9.29518C82.8672 9.57771 82.7864 9.83517 82.6266 10.0676C82.4669 10.2999 82.2446 10.4822 81.9655 10.6142C81.6845 10.7463 81.3723 10.8132 81.0252 10.8132C80.6175 10.8199 80.241 10.7129 79.8976 10.4989Z" fill="white"/>
</svg>
