<svg xmlns="http://www.w3.org/2000/svg" width="40" height="40" fill="none" viewBox="0 0 40 40" class="Cart__cartIcon___SiVBV"><path fill="#FFFFFF" stroke="#FFFFFF" stroke-width="0.5px" d="M35 11.417h-6.634c-.619-2.085-1.549-4.136-2.88-5.683-1.373-1.599-3.18-2.666-5.498-2.666-2.319 0-4.125 1.067-5.5 2.666-1.33 1.547-2.26 3.598-2.878 5.683H5a1.917 1.917 0 0 0-1.917 1.916V35c0 1.059.858 1.917 1.917 1.917h30A1.917 1.917 0 0 0 36.917 35V13.333A1.917 1.917 0 0 0 35 11.417Zm-15.012-6.13c1.59 0 2.86.76 3.876 1.954.954 1.12 1.673 2.612 2.2 4.176h-12.13c.521-1.565 1.235-3.057 2.184-4.177 1.01-1.193 2.279-1.954 3.87-1.954Z"></path><path fill="#F94F0D" fill-rule="evenodd" d="M5 11.667h30c.92 0 1.667.746 1.667 1.666V35c0 .92-.747 1.667-1.667 1.667H5c-.92 0-1.667-.747-1.667-1.667V13.333c0-.92.747-1.666 1.667-1.666Z" clip-rule="evenodd"></path><path fill="currentColor" d="M27.407 19.26H12.593v10.37h14.814V19.26Z"></path><path fill="currentColor" fill-rule="evenodd" d="M19.988 3.318c5.486 0 8.012 6.188 8.84 11.258h-.006l.007.04a.834.834 0 0 1-.61.876l-.148.026a.833.833 0 0 1-.902-.758l.003.016c-.751-4.187-2.779-9.74-7.184-9.74-4.41 0-6.413 5.552-7.146 9.744a.853.853 0 0 1-.914.738.833.833 0 0 1-.754-.94l-.027-.002c.829-5.07 3.354-11.258 8.84-11.258Z" clip-rule="evenodd"></path><mask id="bold-highlighted_large_svg__a" width="18" height="11" x="11" y="19" maskUnits="userSpaceOnUse" style="mask-type: alpha;" fill="none"><path fill="#FFFFFF" d="M11.111 19.26H28.89v10.37H11.11V19.26Z"></path></mask><g mask="url(#bold-highlighted_large_svg__a)" fill="none"><path fill="#F94F0D" fill-rule="evenodd" d="M11.111 29.63H28.89V19.26H11.11v10.37Z" clip-rule="evenodd"></path></g><path fill="#FFFFFE" fill-rule="evenodd" d="M11.528 29.22h16.944v-9.55H11.528v9.551Z" clip-rule="evenodd"></path><path fill="#000002" fill-rule="evenodd" d="M11.944 28.81h16.112v-8.732H11.944v8.733Z" clip-rule="evenodd"></path><path fill="#FFFFFE" fill-rule="evenodd" d="M13.889 27.174v.065h-.235v.48h-.082v-.48h-.239v-.066h.556Zm10.668 0c.207 0 .276.148.276.273 0 .124-.069.272-.276.272-.207 0-.28-.148-.28-.273 0-.124.073-.273.28-.273Zm1.073 0 .143.48.152-.48h.094l.15.48.145-.48h.075l-.172.545h-.097l-.146-.48-.153.48h-.097l-.168-.546h.074Zm-4.91 0c.207 0 .28.148.28.273 0 .124-.073.272-.28.272-.206 0-.276-.148-.276-.273 0-.124.07-.273.277-.273Zm-5.907 0c.122 0 .252.03.26.152h-.09c-.009-.073-.091-.093-.186-.093-.087 0-.158.037-.158.093 0 .027.02.059.095.069l.217.03c.098.014.142.063.142.129 0 .103-.107.165-.28.165-.17 0-.268-.055-.276-.169h.09c0 .07.075.11.19.11.122 0 .189-.04.189-.1 0-.141-.453-.013-.453-.227 0-.1.098-.16.26-.16Zm1.015 0v.322c0 .1.068.163.19.163.124 0 .19-.064.19-.163v-.322h.088v.315c0 .152-.115.23-.277.23-.163 0-.278-.078-.278-.23v-.316h.087Zm3.433 0 .183.48.18-.48h.098v.545h-.06v-.49l-.184.49h-.064l-.186-.49h-.003v.49h-.058v-.546h.094Zm4.048 0c.133 0 .232.062.24.148h-.09c-.014-.065-.08-.09-.153-.09-.13 0-.221.07-.221.215s.091.214.22.214c.074 0 .148-.031.162-.1h.089c-.019.114-.133.158-.27.158-.194 0-.286-.13-.286-.273 0-.124.077-.273.309-.273Zm-6.27 0 .182.48.182-.48h.097v.545h-.06v-.49l-.186.49h-.064l-.185-.49h-.002v.49h-.059v-.546h.095Zm4.96 0c.121 0 .251.03.263.152h-.09c-.008-.073-.095-.093-.19-.093-.082 0-.153.037-.153.093 0 .027.02.059.09.069l.22.03c.096.014.139.063.139.129 0 .103-.103.165-.28.165-.165 0-.264-.055-.276-.169h.091c.004.07.079.11.189.11.126 0 .193-.04.193-.1 0-.141-.453-.013-.453-.227 0-.1.094-.16.256-.16Zm2.558.059c-.122 0-.204.086-.204.213 0 .128.082.215.204.215.118 0 .2-.087.2-.215 0-.127-.082-.213-.2-.213Zm-3.836 0c-.119 0-.2.086-.2.213 0 .128.081.215.2.215.121 0 .203-.087.203-.215 0-.127-.082-.213-.203-.213Zm-3.28-5.79v4.093h-.16v-4.094h.16Zm4.723 0v4.093h-.161v-4.094h.16Zm-8.208.812v.123h-.342v2.49h1.383v-2.49h-.342v-.123h1.178v.123h-.345v2.49h.345v.413h-.048v-.008c0-.114-.093-.26-.214-.28l-.028-.003h-2.765v-.123h.342v-2.489h-.342v-.123h1.178Zm10.773.006.699 1.983.686-1.983h.83v.113h-.313v2.504h.313v.112H25.83v-.112h.333v-2.361l-.827 2.36h-.182l-.837-2.316h-.006v2.007c0 .245.032.31.222.31h.14v.112h-.784v-.112h.091c.179 0 .218-.058.222-.269v-2.235h-.313v-.113h.84Zm-5.586 0v.115H19c-.12 0-.167.037-.167.099 0 .063.024.131.076.25l.021.047.658 1.524.96-1.92h-.312v-.115h1.152v.115h-.302l-1.253 2.502h.313v.112h-1.149v-.111h.302l.225-.454-.805-1.845c-.044-.1-.084-.188-.199-.202l-.033-.002h-.155v-.115h.81Z" clip-rule="evenodd"></path><path fill="#F94F0D" fill-rule="evenodd" d="M18.056 27.72h.555v-.546h-.555v.545Z" clip-rule="evenodd"></path></svg>